<svg viewBox="0 0 4000 1000" fill="none" xmlns="http://www.w3.org/2000/svg">
  <g clip-path="url(#a)">
    <path d="M1019.264 500.106c0-98.912-29.889-195.602-85.889-277.844C877.376 140.02 797.783 75.921 704.659 38.068 611.537.217 509.067-9.687 410.208 9.609c-98.859 19.297-189.667 66.927-260.94 136.868C77.994 216.419 29.457 305.53 9.793 402.54-9.872 499.551.221 600.106 38.794 691.488c38.572 91.382 103.893 169.489 187.702 224.44 83.809 54.952 182.34 84.283 283.136 84.283 135.163 0 264.79-52.69 360.365-146.478 95.573-93.788 149.267-220.991 149.267-353.627Z" fill="#00CFFF"/>
    <path d="M815.568 435.772a334.542 334.542 0 0 0-30.276-20.423 70.873 70.873 0 0 1-12.305-9.803c-7.812-7.761-20.883-21.24-25.121-29.562-2.706-5.106-1.582-14.909.512-23.997a62.446 62.446 0 0 0-7.71-46.87l-13.633-22.108a149.99 149.99 0 0 1-15.01-32.166 92.922 92.922 0 0 0-23.793-38.241c-22.107-21.598-83.274-32.217-134.076-33.902a81.996 81.996 0 0 0-9.598-2.247c-22.619-3.88-46.769-10.211-68.417-6.076-32.166 6.025-64.638 16.083-88.942 40.846-5.105 5.106-12.508 7.403-17.767 12.152-10.212 9.445-24.559 9.445-33.851 19.912-5.412 6.076-7.914 26.039-22.159 33.646-23.588 12.611-40.845 26.55-46.717 33.647-4.34 5.361-7.658 11.59-11.896 17.053-4.238 5.463-24.559 15.062-30.634 20.985a42.984 42.984 0 0 0-10.212 37.373c.358 1.583.613 2.859.817 3.881 2.349 8.679 8.629 24.354 7.199 31.553-1.736 8.526-23.639 72.041 25.528 88.941a21.902 21.902 0 0 1 15.624 20.883 77.867 77.867 0 0 0 7.251 24.405 40.843 40.843 0 0 0 13.989 15.317 228.452 228.452 0 0 1 17.819 18.993c17.359 32.115 12.458 48.198 45.951 59.073a120.36 120.36 0 0 1 24.456 11.233 130.573 130.573 0 0 0 29.971 13.274l1.327.46c7.352-17.87 14.858-34.77 22.312-50.751-59.839-61.268-44.113-130.144-38.344-148.525a3.426 3.426 0 0 1 2.328-2.287 3.423 3.423 0 0 1 3.187.705c12.56 11.028 51.057 50.699 46.308 122.536 13.173-26.396 26.039-49.576 37.783-69.386a149.745 149.745 0 0 1-.869-154.294 3.423 3.423 0 0 1 5.821 0c8.833 13.07 32.728 56.162 17.921 117.431 10.722-16.441 19.453-28.592 25.171-36.2 15.318-102.114 92.516-135.607 112.785-142.704a3.424 3.424 0 0 1 3.256.536 3.417 3.417 0 0 1 1.288 3.038 177.418 177.418 0 0 1-104.718 143.981c-10.773 14.143-21.137 29.051-31.042 44.317 34.208-26.703 82.1-39.262 121.924-29.613a3.471 3.471 0 0 1 2.042 5.412c-11.437 15.317-56.98 66.374-142.96 54.58-14.5 24.457-27.775 49.168-39.569 72.859 37.067-28.031 91.188-38.753 133.157-24.661a3.53 3.53 0 0 1 2.345 4.181 3.53 3.53 0 0 1-.813 1.538c-13.02 14.04-63.209 60.094-145.768 41.815-7.761 16.339-19.3 43.245-24.916 56.52-1.94 4.595-3.727 9.191-5.106 13.888-3.676 10.824-8.578 24.354-14.449 37.833a15.316 15.316 0 0 0 9.037 20.423 336.106 336.106 0 0 0 202.493 7.505 15.318 15.318 0 0 0 9.904-8.782l2.758-6.433s28.796-66.833 33.033-95.987a77.142 77.142 0 0 1 8.425-26.243 27.468 27.468 0 0 1 22.567-14.194c21.955-1.174 68.672-4.238 85.674-9.65 22.567-7.148 12.764-48.3 11.59-52.742-1.175-4.442 10.875-14.755 13.326-20.729 2.451-5.974-6.076-8.118-9.599-14.704-3.523-6.587 8.731-11.386 10.212-17.36 1.48-5.974-3.983-12.56-6.331-17.002a35.74 35.74 0 0 1-3.166-10.211s16.491-12.101 25.528-19.708c9.037-7.608 7.148-13.939 7.148-15.317M1669.979 738.893V428.97l-107.073 225.673h-62.747L1393.085 428.97v309.923h-114.396V218.694h124.204l128.317 271.862 129.043-271.862h123.542v520.199h-113.816ZM2368.145 626.108v101.858h-381.252V225.864h374.398v101.857h-249.116v97.597h213.926v94.009h-213.926v106.781h255.97ZM2956.862 328.366h-172.525v403.552h-131.213V328.366h-173.392V225.667h476.945l.185 102.699ZM3083.085 728.29V216.655h162.782V728.29h-162.782ZM3873.128 367.98c-6.015-4.753-13.192-8.631-21.189-11.426a530.488 530.488 0 0 0-45.332-16.443c-19.297-6.177-39.179-11.325-59.504-15.403-20.976-4.353-42.697-6.564-64.514-6.576-22.724-.969-45.401 2.687-65.445 10.557-7.646 3.304-13.892 8.067-18.088 13.771-4.195 5.705-6.176 12.135-5.71 18.595-.28 5.289 1.165 10.549 4.219 15.351 3.077 4.799 7.668 9.001 13.402 12.254 15.382 8.127 32.631 14.194 50.926 17.915 22.142 5.106 49.389 10.99 81.645 17.827 41.069 7.508 80.947 18.124 118.983 31.672 30.975 10.714 57.522 27.156 77.007 47.684 19.253 23.199 28.577 50.041 26.758 77.107 1.096 25.583-6.502 50.966-22.119 73.906-14.054 19.561-34.494 36.319-59.504 48.807-26.289 12.678-55.518 21.796-86.283 26.915-32.654 5.691-66.122 8.596-99.708 8.652-35.963-.071-71.809-2.622-107.097-7.615-35.963-5.003-71.228-12.391-105.326-22.067-32.559-9.074-63.676-20.681-92.81-34.617l72.58-104.799c7.971 5.244 16.757 9.804 26.173 13.587 17.737 7.65 36.103 14.498 54.982 20.509 23.68 7.566 48.106 13.815 73.069 18.694 26.593 5.333 54.05 8.039 81.644 8.047 22.865 1.109 45.708-2.364 66.031-10.039 6.736-2.826 12.306-6.923 16.128-11.859 3.799-4.932 5.734-10.52 5.547-16.179.258-6.088-1.701-12.118-5.663-17.483-3.986-5.362-9.836-9.871-16.968-13.064-19.134-8.621-39.855-15.262-61.508-19.731-25.941-5.799-55.587-12.377-89.267-19.646-37.664-7.932-73.999-18.935-108.285-32.798-26.175-10.512-48.106-25.854-63.536-44.481-14.685-20.169-21.77-42.796-20.58-65.597-1.516-32.694 10.977-64.924 35.683-92.251 24.124-25.15 57.476-44.852 96.282-56.857 41.674-13.078 86.681-19.652 132.085-19.298 32.791-.125 65.444 2.784 97.211 8.654 30.044 5.506 59.389 12.859 87.708 21.981 27.268 8.653 51.53 17.307 73.067 26.394l-72.694 99.35Z" fill="#000"/>
  </g>
  <defs>
    <clipPath id="a">
      <path fill="#fff" d="M0 0h4000v1000H0z"/>
    </clipPath>
  </defs>
</svg>
